<svg id="cheesecake" enable-background="new 0 0 300 300" height="512" viewBox="0 0 300 300" width="512" xmlns="http://www.w3.org/2000/svg"><g><path d="m146.364 57.249c2.362 0 4.277-1.915 4.277-4.276s-1.915-4.277-4.277-4.277-4.276 1.915-4.276 4.277 1.915 4.276 4.276 4.276z"/><path d="m53.359 64.045c2.209 0 4-1.791 4-4v-8c0-2.209-1.791-4-4-4s-4 1.791-4 4v8c0 2.209 1.791 4 4 4z"/><path d="m57.359 76.045c0-2.209-1.791-4-4-4s-4 1.791-4 4v8c0 2.209 1.791 4 4 4s4-1.791 4-4z"/><path d="m45.359 64.045h-8c-2.209 0-4 1.791-4 4s1.791 4 4 4h8c2.209 0 4-1.791 4-4s-1.791-4-4-4z"/><path d="m61.359 72.045h8c2.209 0 4-1.791 4-4s-1.791-4-4-4h-8c-2.209 0-4 1.791-4 4s1.791 4 4 4z"/><path d="m239.359 100.045c-7.719 0-14 6.281-14 14s6.281 14 14 14 14-6.281 14-14-6.281-14-14-14zm0 20c-3.309 0-6-2.691-6-6s2.691-6 6-6 6 2.691 6 6-2.691 6-6 6z"/><path d="m262.364 172.696c-2.362 0-4.276 1.915-4.276 4.277s1.915 4.276 4.276 4.276 4.277-1.915 4.277-4.276-1.915-4.277-4.277-4.277z"/><path d="m235.336 152.033-74.694-42.439c-.822-3.645-3.086-6.829-6.3-8.779-.975-8.506-8.219-15.137-16.982-15.137-3.523 0-6.773 1.108-9.496 2.943-8.872-7.629-22.316-7.912-22.91-7.919-1.928-.064-3.459 1.211-3.922 2.994-.17.654-3.824 15.156 2.522 25.988l-43.79 19.049c-1.461.635-2.404 2.076-2.404 3.668v92.443c0 2.004 1.482 3.697 3.467 3.965l172 23.111c.178.023.355.035.533.035.963 0 1.9-.348 2.633-.988.869-.76 1.367-1.857 1.367-3.012v-92.443c-.001-1.44-.774-2.768-2.024-3.479zm-169.977-15.059 64 8.598v16.068c0 5.619 3.811 10.477 9.268 11.812 2.383.586 4.826.443 7.057-.377v8.93c0 5.211 3.49 9.881 8.49 11.354 1.119.33 2.256.492 3.381.492 2.514 0 4.973-.807 7.057-2.365 3.018-2.258 4.748-5.713 4.748-9.48v-31.057l60 8.062v61.26l-164-22.037v-61.26zm43.788-21c1.935 1.518 4.16 2.833 6.7 3.909 2.445 3.905 6.753 6.529 11.691 6.529h19.641c5.587 0 10.383-3.347 12.56-8.128l53.709 30.516-47.556-6.39c-1.133-.148-2.299.195-3.166.953-.869.76-1.367 1.857-1.367 3.012v35.631c0 1.221-.561 2.342-1.539 3.074-.979.727-2.217.945-3.385.607-1.621-.479-2.752-1.992-2.752-3.682v-20.365c0-2.209-1.791-4-4-4s-4 1.791-4 4c0 1.287-.58 2.48-1.594 3.275-1.008.791-2.309 1.068-3.561.768-1.865-.457-3.17-2.121-3.17-4.043v-19.566c0-2.004-1.482-3.697-3.467-3.965l-57.784-7.764zm28.212-22.296c5.014 0 9.094 4.08 9.104 8.857-.018.119-.057.5-.062.621-.088 1.771 1.002 3.391 2.678 3.975 2.346.818 3.922 3.012 3.922 5.461 0 3.209-2.611 5.82-5.82 5.82h-19.641c-3.209 0-5.82-2.611-5.82-5.82 0-2.449 1.576-4.643 3.922-5.461 1.676-.584 2.766-2.203 2.678-3.975-.008-.197-.029-.389-.049-.389-.002 0-.002.002-.004.004-.002-5.013 4.078-9.093 9.092-9.093zm-29.18-4.672c3.769.515 9.92 1.911 14.249 5.514-1.061 1.911-1.792 4.027-2.052 6.295-3.237 1.964-5.508 5.179-6.315 8.856-1.027-.808-1.944-1.674-2.675-2.631-4.146-5.436-3.812-13.54-3.207-18.034zm-42.82 132.34v-15.04l164 22.037v15.038z"/></g></svg>